{"title":"Bruce-Lee Fist of Fury (1972) HQ 1080p Blu-ray x264 DTS 5.1 DDR","uid":14789025,"size":9342559758,"categoryP":"video","categoryS":"hd___movies","magnet":"?xt=urn:btih:830c368a62f617c37f9eb416a7f0e427b03659d6&amp;dn=Bruce-Lee+Fist+of+Fury+%281972%29+HQ+1080p+Blu-ray+x264+DTS+5.1+DDR&amp;tr=udp%3A%2F%2Ftracker.leechers-paradise.org%3A6969&amp;tr=udp%3A%2F%2Fzer0day.ch%3A1337&amp;tr=udp%3A%2F%2Fopen.demonii.com%3A1337&amp;tr=udp%3A%2F%2Ftracker.coppersurfer.tk%3A6969&amp;tr=udp%3A%2F%2Fexodus.desync.com%3A6969","seeders":8,"leechers":12,"uploader":"SaM","files":4,"time":1465044827,"description":"- HollywooD MoviE -\r\n**- Bruce Lee -**\r\n**- Fist Of Fury -**\r\n- (1972) -\r\n** HQ 1080p Blu-Ray / x264 / DTS 5.1 **\r\nEnglish subtitle(s)\r\n\r\n ~* SCREENSHOTS *~\r\n \nhttp://extraimago.com/image/aZr9 \nhttp://extraimago.com/image/aZr3 \nhttp://extraimago.com/image/aZrb \nhttp://extraimago.com/image/aZrh \nhttp://extraimago.com/image/aZrd \nhttp://extraimago.com/image/aZrI \nhttp://extraimago.com/image/aZrl \nhttp://extraimago.com/image/aZri \nhttp://extraimago.com/image/aZrm \nhttp://extraimago.com/image/aZrR \nhttp://extraimago.com/image/aZrQ \nhttp://extraimago.com/image/aZrz \nhttp://extraimago.com/image/aZrU \nhttp://extraimago.com/image/aZrM\r\n\r\n[ Specs ]\r\nGeneral\r\nSource = BD50 @ IPT\r\n\r\nFormat : Matroska\r\nFile size : 8.60 GiB\r\nDuration : 1h 46mn\r\nOverall bit rate : 11.5 Mbps\r\nEncoded date : UTC 2016-06-03 16:10:53\r\n\r\nVideo\r\nFormat : AVC\r\nFormat/Info : Advanced Video Codec\r\nFormat profile :   \r\nFormat settings, CABAC : Yes\r\nBit rate : 10 000 Kbps\r\nWidth : 1 920 pixels\r\nHeight : 816 pixels\r\nDisplay aspect ratio : 2.35:1\r\nFrame rate mode : Constant\r\nFrame rate : 23.976 (24000/1001) fps\r\nBit depth : 8 bits\r\nScan type : Progressive\r\nBits/(Pixel*Frame) : 0.266\r\nStream size : 7.48 GiB (87%)\r\nLanguage : English\r\n\r\nAudio\r\nFormat : DTS\r\nFormat/Info : Digital Theater Systems\r\nBit rate mode : Constant\r\nBit rate : 1 509 Kbps\r\nChannel(s) : 6 channels\r\nChannel positions : Front: L C R, Side: L R, LFE\r\nSampling rate : 48.0 KHz\r\nFrame rate : 93.750 fps (512 spf)\r\nBit depth : 24 bits\r\nCompression mode : Lossy\r\nStream size : 1.12 GiB (13%)\r\nLanguage : English\r\nDefault : Yes\r\nForced : No\r\n\r\nText\r\nFormat : PGS\r\nCodec ID : S_HDMV/PGS\r\nCodec ID/Info : Picture based subtitle format used on BDs/HD-DVDs\r\nBit rate : 0 bps\r\nCount of elements : 0\r\nStream size : 0.00 Byte (0%)\r\nLanguage : English\r\nDefault : Yes\r\nForced : No\r\nChapters: YES\r\nSample: YES - included\r\n\r\nA DDR Exclusive Release...!","torrent":{"xt":"urn:btih:830c368a62f617c37f9eb416a7f0e427b03659d6","amp;dn":"Bruce-Lee+Fist+of+Fury+%281972%29+HQ+1080p+Blu-ray+x264+DTS+5.1+DDR","amp;tr":["udp%3A%2F%2Ftracker.leechers-paradise.org%3A6969","udp%3A%2F%2Fzer0day.ch%3A1337","udp%3A%2F%2Fopen.demonii.com%3A1337","udp%3A%2F%2Ftracker.coppersurfer.tk%3A6969","udp%3A%2F%2Fexodus.desync.com%3A6969"],"infoHash":"830c368a62f617c37f9eb416a7f0e427b03659d6","infoHashBuffer":{"type":"Buffer","data":[131,12,54,138,98,246,23,195,127,158,180,22,167,240,228,39,176,54,89,214]},"announce":[],"urlList":[]}}